<svg width="179" height="36" viewBox="0 0 179 36" fill="none" xmlns="http://www.w3.org/2000/svg">
<line x1="112.875" y1="17.5" x2="178.875" y2="17.5" stroke="#0063A8"/>
<line x1="0.125" y1="17.5" x2="66.125" y2="17.5" stroke="#0063A8"/>
<circle cx="89" cy="18" r="16" stroke="#0063A8" stroke-width="2.76396" stroke-dasharray="0.98 8.39"/>
<mask id="path-4-inside-1_1_1055" fill="white">
<path fill-rule="evenodd" clip-rule="evenodd" d="M88.3889 6.81241L81.4831 19.9672C81.1336 20.6331 81.6165 21.432 82.3685 21.432H86.0514L85.8715 27.9452C85.813 30.0634 88.6566 30.8062 89.6415 28.93L96.5473 15.7752C96.8969 15.1094 96.414 14.3104 95.6619 14.3104H91.979L92.159 7.79727C92.2175 5.6791 89.3738 4.93625 88.3889 6.81241Z"/>
</mask>
<path fill-rule="evenodd" clip-rule="evenodd" d="M88.3889 6.81241L81.4831 19.9672C81.1336 20.6331 81.6165 21.432 82.3685 21.432H86.0514L85.8715 27.9452C85.813 30.0634 88.6566 30.8062 89.6415 28.93L96.5473 15.7752C96.8969 15.1094 96.414 14.3104 95.6619 14.3104H91.979L92.159 7.79727C92.2175 5.6791 89.3738 4.93625 88.3889 6.81241Z" fill="#FFDF4E"/>
<path d="M81.4831 19.9672L82.712 20.6123H82.712L81.4831 19.9672ZM88.3889 6.81241L89.6177 7.4575V7.4575L88.3889 6.81241ZM86.0514 21.432L87.4388 21.4704L87.4782 20.0442H86.0514V21.432ZM85.8715 27.9452L84.4842 27.9069L85.8715 27.9452ZM89.6415 28.93L88.4127 28.285L89.6415 28.93ZM96.5473 15.7752L97.7761 16.4203L96.5473 15.7752ZM91.979 14.3104L90.5917 14.2721L90.5523 15.6983H91.979V14.3104ZM92.159 7.79727L93.5463 7.8356L92.159 7.79727ZM82.712 20.6123L89.6177 7.4575L87.1601 6.16732L80.2543 19.3221L82.712 20.6123ZM82.3685 20.0442C82.6602 20.0442 82.8475 20.354 82.712 20.6123L80.2543 19.3221C79.4196 20.9121 80.5728 22.8199 82.3685 22.8199V20.0442ZM86.0514 20.0442H82.3685V22.8199H86.0514V20.0442ZM87.2588 27.9835L87.4388 21.4704L84.6641 21.3937L84.4842 27.9069L87.2588 27.9835ZM88.4127 28.285C88.1113 28.8592 87.2409 28.6318 87.2588 27.9835L84.4842 27.9069C84.385 31.4949 89.202 32.7532 90.8704 29.5751L88.4127 28.285ZM95.3185 15.1302L88.4127 28.285L90.8704 29.5751L97.7761 16.4203L95.3185 15.1302ZM95.6619 15.6983C95.3702 15.6983 95.1829 15.3884 95.3185 15.1302L97.7761 16.4203C98.6108 14.8303 97.4577 12.9226 95.6619 12.9226V15.6983ZM91.979 15.6983H95.6619V12.9226H91.979V15.6983ZM90.7716 7.75894L90.5917 14.2721L93.3663 14.3488L93.5463 7.8356L90.7716 7.75894ZM89.6177 7.4575C89.9192 6.88327 90.7896 7.11062 90.7716 7.75894L93.5463 7.8356C93.6454 4.24759 88.8285 2.98922 87.1601 6.16732L89.6177 7.4575Z" fill="#0063A8" mask="url(#path-4-inside-1_1_1055)"/>
</svg>
