<svg width="34" height="26" viewBox="0 0 34 26" fill="none" xmlns="http://www.w3.org/2000/svg">
<path d="M2.2926 3.21126C0.952225 4.88673 0.353118 7.17146 0.769446 9.0297C1.84581 13.8429 6.31372 14.6146 9.59357 15.0411C12.1829 15.3762 14.6606 15.8534 14.5997 18.1585C14.5286 20.5549 11.8275 21.1438 10.0505 21.1438C5.43029 21.1438 5.27798 17.732 5.27798 17.732H0.3125C0.38358 19.0114 0.769446 21.0728 2.35352 22.8396C4.07976 24.7791 6.67928 25.7539 10.0607 25.7539C12.6602 25.7539 15.0261 24.9111 16.7118 23.4083V25.4696H21.3421V19.5699L22.977 17.7726L27.6582 25.4696H33.0501L26.2365 14.2084L33.0501 6.74497H27.0489L21.3421 13.0001V0.500053H16.7118V3.52605C16.5595 3.33311 16.397 3.14018 16.2244 2.94725C14.5387 1.16009 12.1119 0.256348 9.00462 0.256348C5.42014 0.256348 3.37911 1.86073 2.2926 3.21126ZM9.08586 4.59225C11.1675 4.59225 13.2491 5.05935 14.0412 7.95334H16.7016V12.3806C13.3811 9.64912 6.17156 11.3652 5.39983 7.9635C4.99365 6.17633 6.77066 4.59225 9.08586 4.59225Z" fill="white"/>
</svg>
