<svg width="18" height="14" viewBox="0 0 18 14" fill="none" xmlns="http://www.w3.org/2000/svg">
<path d="M17.4702 1.71327C16.834 1.99468 16.1593 2.1795 15.4685 2.26161C16.1967 1.82613 16.7416 1.14078 17.0019 0.333272C16.3185 0.739939 15.5694 1.02494 14.7885 1.17911C14.264 0.617921 13.5688 0.245741 12.811 0.120426C12.0532 -0.00488924 11.2752 0.123681 10.5979 0.48615C9.9207 0.848618 9.3822 1.42468 9.06614 2.12477C8.75008 2.82486 8.67417 3.60976 8.85021 4.35744C7.46447 4.28798 6.10882 3.92788 4.87128 3.30049C3.63374 2.67311 2.54198 1.79248 1.66688 0.715772C1.35712 1.24781 1.19434 1.85263 1.19521 2.46827C1.19521 3.67661 1.81021 4.74411 2.74521 5.36911C2.19188 5.35169 1.65074 5.20226 1.16688 4.93327V4.9766C1.16704 5.78136 1.44552 6.56129 1.95508 7.18415C2.46465 7.80702 3.17394 8.2345 3.96271 8.39411C3.44905 8.5333 2.91046 8.55382 2.38771 8.45411C2.6101 9.1468 3.04355 9.7526 3.62737 10.1867C4.21119 10.6208 4.91615 10.8614 5.64354 10.8749C4.92061 11.4427 4.09286 11.8624 3.20761 12.1101C2.32236 12.3577 1.39698 12.4285 0.484375 12.3183C2.07746 13.3428 3.93196 13.8867 5.82604 13.8849C12.2369 13.8849 15.7427 8.57411 15.7427 3.96827C15.7427 3.81827 15.7385 3.66661 15.7319 3.51827C16.4143 3.02508 17.0032 2.41412 17.471 1.71411L17.4702 1.71327Z" fill="#333333"/>
</svg>
